<svg xmlns="http://www.w3.org/2000/svg" width="1916" height="605" viewBox="0 0 1916 605" version="1.1"><path d="M 820.628 302.429 C 819.733 305.994, 819 309.381, 819 309.956 L 819 311 824 311 L 829 311 829 341.500 L 829 372 836.500 372 L 844 372 844 341.500 L 844 311 849.079 311 L 854.159 311 853.450 307.772 C 853.060 305.996, 852.217 302.733, 851.578 300.522 L 850.415 296.500 836.336 296.223 L 822.257 295.947 820.628 302.429 M 858 334 L 858 372 866 372 L 874 372 874 357 L 874 342 878 342 L 882 342 882 357 L 882 372 890.031 372 L 898.062 372 897.781 334.250 L 897.500 296.500 889.750 296.208 L 882 295.916 882 312.458 L 882 329 878 329 L 874 329 874 312.500 L 874 296 866 296 L 858 296 858 334 M 904 334 L 904 372 918.386 372 L 932.773 372 933.458 367.250 C 933.835 364.637, 934.385 361.488, 934.680 360.250 L 935.217 358 927.068 358 L 918.919 358 919.210 349.750 L 919.500 341.500 925.750 341.202 L 932 340.905 932 335 L 932 329.095 925.750 328.798 L 919.500 328.500 919.500 319.500 L 919.500 310.500 927.621 310.212 L 935.741 309.923 934.826 305.212 C 934.322 302.620, 933.697 299.488, 933.436 298.250 L 932.962 296 918.481 296 L 904 296 904 334 M 941 334.084 L 941 372.169 957.974 371.834 L 974.948 371.500 977.224 369.225 L 979.500 366.950 979.823 352.548 L 980.145 338.145 978.039 336.039 L 975.933 333.933 977.467 331.744 L 979 329.555 979 315.712 L 979 301.869 978.021 300.039 L 977.042 298.210 973.872 297.105 L 970.702 296 955.851 296 L 941 296 941 334.084 M 997 296.785 C 997 297.216, 994.075 313.618, 990.500 333.233 C 986.925 352.848, 984 369.614, 984 370.492 L 984 372.088 991.250 371.794 L 998.500 371.500 998.780 369 C 998.934 367.625, 999.280 365.488, 999.549 364.250 L 1000.038 362 1005.050 362 L 1010.063 362 1010.453 363.250 C 1010.668 363.938, 1011.125 366.188, 1011.467 368.250 L 1012.091 372 1019.045 372 L 1026 372 1026.013 370.750 C 1026.039 368.152, 1013.846 300.399, 1012.965 298.250 L 1012.043 296 1004.521 296 L 997 296 997 296.785 M 1033 299 L 1031 301 1031 333.444 L 1031 365.888 1033.413 368.694 L 1035.827 371.500 1051.913 371.855 L 1068 372.210 1068 351.230 L 1068 330.250 1064.875 329.625 C 1063.156 329.281, 1060.006 329, 1057.875 329 L 1054 329 1054 344.057 L 1054 359.115 1049.750 358.807 L 1045.500 358.500 1045.500 334.500 L 1045.500 310.500 1053.886 310.207 L 1062.271 309.915 1061.710 304.483 C 1061.402 301.496, 1060.865 298.590, 1060.516 298.026 L 1059.882 297 1047.441 297 L 1035 297 1033 299 M 698.696 299.637 C 698.313 300.020, 698 301.110, 698 302.060 L 698 303.786 699.582 304.393 C 700.452 304.727, 705.342 305, 710.448 305 L 719.732 305 721.729 310.250 L 723.725 315.500 711.113 315.744 C 704.176 315.879, 697.541 316.211, 696.369 316.483 L 694.239 316.978 693.694 319.063 L 693.148 321.148 695.205 323.205 L 697.261 325.261 743.558 324.813 L 789.856 324.365 791.428 323.060 C 793.218 321.574, 793.385 320.159, 792.024 318 L 791.078 316.500 775.680 316 L 760.283 315.500 762.768 309.750 L 765.254 304 775.697 304 L 786.139 304 785.820 301.750 L 785.500 299.500 773.500 299.500 L 761.500 299.500 758.010 307.778 L 754.519 316.056 742.151 315.778 L 729.783 315.500 726.469 307.500 L 723.156 299.500 711.274 299.221 L 699.392 298.942 698.696 299.637 M 956 319.443 L 956 330 959.250 329.985 C 961.038 329.976, 963.080 329.601, 963.790 329.151 L 965.079 328.333 964.790 318.916 L 964.500 309.500 960.250 309.193 L 956 308.885 956 319.443 M 1004.717 327 C 1003.791 330.859, 1002 344.733, 1002 348.041 L 1002 351 1004.941 351 L 1007.882 351 1008.312 350.250 C 1008.549 349.837, 1007.972 343.875, 1007.029 337 L 1005.316 324.500 1004.717 327 M 701.803 330.531 L 701.272 331.062 705.922 354.031 L 710.572 377.001 712.323 378.750 L 714.073 380.500 743.010 380.500 L 771.946 380.500 773.900 378.500 L 775.854 376.500 778.948 360 C 780.650 350.925, 782.483 341.613, 783.021 339.307 C 783.560 337.001, 784 334.189, 784 333.057 L 784 331 770 331 L 756 331 756 336.964 L 756 342.928 765.738 343.214 L 775.477 343.500 775.812 345.250 L 776.147 347 766.073 347 L 756 347 756 352.462 L 756 357.925 765.239 358.212 L 774.477 358.500 774.812 360.250 L 775.147 362 765.573 362 L 756 362 756 369.573 L 756 377.147 754.250 376.813 L 752.500 376.479 752.206 369.239 L 751.912 362 742.956 362 L 734 362 734 369.573 L 734 377.147 732.250 376.813 L 730.500 376.479 730.207 369.278 L 729.914 362.077 721.288 361.788 L 712.661 361.500 712.247 360.250 L 711.833 359 720.917 359 L 730 359 730 353 L 730 347 719.500 347 L 709 347 709 345.500 L 709 344 719.500 344 L 730 344 730 337 L 730 330 716.167 330 C 708.558 330, 702.094 330.239, 701.803 330.531 M 734 337 L 734 344 737.750 343.991 C 739.813 343.987, 743.862 343.699, 746.750 343.352 L 752 342.721 752 337 L 752 331.279 746.750 330.648 C 743.862 330.301, 739.813 330.013, 737.750 330.009 L 734 330 734 337 M 956 350 L 956 359 960.500 359 L 965 359 965 350 L 965 341 960.500 341 L 956 341 956 350 M 734 353.078 L 734 359.233 736.250 358.630 C 737.487 358.299, 741.561 358.021, 745.302 358.014 L 752.105 358 751.802 352.750 L 751.500 347.500 742.750 347.211 L 734 346.922 734 353.078 M 844.250 382.662 L 843 383.167 843 391.083 L 843 399 847.277 399 L 851.555 399 853.783 397.439 L 856.012 395.878 855.677 390.301 L 855.342 384.723 853.480 383.362 L 851.618 382 848.559 382.079 C 846.876 382.122, 844.938 382.385, 844.250 382.662 M 871.331 384.750 L 871.543 387.500 872.688 387.500 C 873.318 387.500, 874.167 387.834, 874.575 388.241 L 875.316 388.983 876.569 387.943 L 877.822 386.903 878.500 388 L 879.178 389.097 880.589 387.926 C 881.365 387.282, 882 386.334, 882 385.819 L 882 384.882 881.069 385.457 L 880.138 386.033 879.592 385.148 L 879.045 384.264 881.184 384.382 L 883.323 384.500 883.772 383.168 L 884.221 381.837 881.861 382.168 L 879.500 382.500 878.160 384.298 L 876.820 386.095 875.568 385.056 L 874.316 384.017 873.605 384.728 L 872.894 385.439 873.554 383.720 L 874.214 382 872.667 382 L 871.120 382 871.331 384.750 M 920.639 382.775 C 920.094 383.657, 918.021 395.449, 918.008 397.750 L 918 399 919.892 399 L 921.783 399 922.478 396.250 L 923.172 393.500 924.599 396.214 L 926.026 398.927 927.475 398.371 L 928.924 397.815 929.623 395.658 L 930.322 393.500 931.411 396 L 932.500 398.500 934.250 398.794 L 936 399.088 936 397.486 C 936 396.606, 935.484 392.761, 934.853 388.943 L 933.707 382 932.883 382 C 932.430 382, 931.034 383.797, 929.780 385.992 C 928.526 388.188, 927.217 389.988, 926.871 389.992 C 926.526 389.997, 925.690 388.665, 925.014 387.033 C 924.338 385.401, 923.198 383.580, 922.481 382.985 L 921.178 381.903 920.639 382.775 M 953.365 383.169 L 951.229 384.203 950.032 386.439 L 948.836 388.675 949.168 391.588 L 949.500 394.500 950.654 394.282 L 951.808 394.064 953.154 395.782 L 954.500 397.500 952.750 396.128 L 951 394.755 951 395.756 L 951 396.757 954 398 L 957 399.243 960.038 397.984 L 963.076 396.726 964.038 394.929 C 964.567 393.940, 965 391.725, 965 390.007 L 965 386.882 964.011 387.493 L 963.023 388.104 963.579 386.656 L 964.134 385.208 961.845 383.604 L 959.555 382 957.527 382.068 C 956.412 382.105, 954.539 382.601, 953.365 383.169 M 978.627 384.123 C 977.732 385.400, 977 386.987, 977 387.650 L 977 388.855 979.635 390.927 C 981.084 392.067, 982.686 393, 983.194 393 L 984.118 393 983.543 392.069 L 982.967 391.138 983.775 390.639 L 984.582 390.140 984.546 392.820 L 984.510 395.500 981.505 395.669 L 978.500 395.837 980.427 395.093 L 982.354 394.350 980.692 393.712 L 979.031 393.074 977.975 395.047 L 976.920 397.019 979.671 398.065 L 982.422 399.111 984.802 398.514 L 987.182 397.916 986.602 396.406 L 986.023 394.896 987.088 395.554 L 988.153 396.213 987.827 393.364 L 987.500 390.515 984.750 389.203 C 981.660 387.729, 981.250 386.502, 983.552 385.618 L 985.104 385.023 984.558 385.907 L 984.011 386.790 985.544 387.378 L 987.076 387.966 987.671 386.416 L 988.266 384.866 987.352 383.952 C 986.849 383.449, 985.046 382.759, 983.345 382.419 L 980.253 381.801 978.627 384.123 M 1006.186 383.055 L 1003.872 383.983 1004.590 385.146 L 1005.309 386.309 1004.153 385.594 L 1002.996 384.880 1001.996 387.509 L 1000.997 390.139 1001.588 392.496 C 1001.914 393.792, 1002.956 395.556, 1003.906 396.415 L 1005.631 397.976 1008.566 398.550 L 1011.500 399.124 1013.500 397.629 L 1015.500 396.135 1014.259 394.876 L 1013.017 393.617 1009.759 393.559 L 1006.500 393.500 1006.500 390.500 L 1006.500 387.500 1009.852 387.444 L 1013.203 387.388 1014.154 385.689 L 1015.105 383.990 1012.487 382.995 C 1009.429 381.833, 1009.229 381.834, 1006.186 383.055 M 1029.923 384.923 L 1027 387.846 1027 390.288 L 1027 392.730 1029.073 395.366 L 1031.146 398.001 1033.823 397.420 L 1036.500 396.838 1035 398 L 1033.500 399.162 1036.500 398.518 L 1039.500 397.874 1041.450 395.959 L 1043.400 394.044 1043.400 390.393 L 1043.400 386.741 1040.644 384.370 L 1037.888 382 1035.367 382 L 1032.846 382 1029.923 384.923 M 1006.584 385.137 C 1007.043 385.878, 1004.514 388.181, 1003.908 387.575 C 1003.684 387.350, 1003.500 388.661, 1003.500 390.488 L 1003.500 393.809 1004.137 393.416 C 1004.487 393.199, 1005.329 393.692, 1006.009 394.511 C 1006.689 395.330, 1007.740 396, 1008.345 396 L 1009.445 396 1007.223 394.443 L 1005 392.887 1005 390.643 L 1005 388.400 1006.200 387.200 L 1007.400 386 1009.641 386 C 1010.874 386, 1012.091 385.663, 1012.345 385.250 L 1012.809 384.500 1009.500 384.500 L 1006.191 384.500 1006.584 385.137 M 951.530 385.951 L 950.882 387 951.691 387.118 C 952.136 387.184, 952.871 387.172, 953.325 387.093 L 954.151 386.950 953.553 388.834 L 952.955 390.718 953.584 392.359 L 954.214 394 957.048 394 L 959.882 394 960.340 393.250 C 960.593 392.837, 960.957 391.150, 961.149 389.500 L 961.500 386.500 958.200 386.831 L 954.899 387.161 953.539 386.032 L 952.178 384.903 951.530 385.951 M 1034.028 386.944 C 1032.668 387.989, 1031.248 388.653, 1030.871 388.420 L 1030.187 387.997 1030.715 390.017 L 1031.243 392.037 1033.871 393.854 C 1035.317 394.854, 1036.950 395.928, 1037.500 396.240 L 1038.500 396.808 1038.754 392.456 L 1039.009 388.104 1037.254 387.083 L 1035.500 386.061 1036.628 386.030 C 1038.093 385.991, 1039.679 387.980, 1040.192 390.500 L 1040.599 392.500 1041.155 389.780 L 1041.711 387.061 1040.969 387.519 L 1040.227 387.978 1038.991 386.489 C 1037.422 384.599, 1037.034 384.634, 1034.028 386.944 M 873.330 389.418 C 873.699 390.378, 874 392.927, 874 395.082 L 874 399 876.552 399 L 879.105 399 878.802 393.987 L 878.500 388.974 877.500 388.737 L 876.500 388.500 875.900 393 L 875.300 397.500 875.150 393.309 L 875 389.118 873.830 388.395 L 872.660 387.672 873.330 389.418" stroke="none" fill="#4e954f" fill-rule="evenodd"/><path d="M 0 302.501 L 0 605.001 958.250 604.751 L 1916.500 604.500 1916.752 302.250 L 1917.003 0 958.502 0 L 0 0 0 302.501 M 0.494 303 C 0.494 469.375, 0.609 537.437, 0.750 454.250 C 0.891 371.062, 0.891 234.937, 0.750 151.750 C 0.609 68.562, 0.494 136.625, 0.494 303 M 820.628 302.429 C 819.733 305.994, 819 309.381, 819 309.956 L 819 311 824 311 L 829 311 829 341.500 L 829 372 836.500 372 L 844 372 844 341.500 L 844 311 849.079 311 L 854.159 311 853.450 307.772 C 853.060 305.996, 852.217 302.733, 851.578 300.522 L 850.415 296.500 836.336 296.223 L 822.257 295.947 820.628 302.429 M 858 334 L 858 372 866 372 L 874 372 874 357 L 874 342 878 342 L 882 342 882 357 L 882 372 890.031 372 L 898.062 372 897.781 334.250 L 897.500 296.500 889.750 296.208 L 882 295.916 882 312.458 L 882 329 878 329 L 874 329 874 312.500 L 874 296 866 296 L 858 296 858 334 M 904 334 L 904 372 918.386 372 L 932.773 372 933.458 367.250 C 933.835 364.637, 934.385 361.488, 934.680 360.250 L 935.217 358 927.068 358 L 918.919 358 919.210 349.750 L 919.500 341.500 925.750 341.202 L 932 340.905 932 335 L 932 329.095 925.750 328.798 L 919.500 328.500 919.500 319.500 L 919.500 310.500 927.621 310.212 L 935.741 309.923 934.826 305.212 C 934.322 302.620, 933.697 299.488, 933.436 298.250 L 932.962 296 918.481 296 L 904 296 904 334 M 941 334.084 L 941 372.169 957.974 371.834 L 974.948 371.500 977.224 369.225 L 979.500 366.950 979.823 352.548 L 980.145 338.145 978.039 336.039 L 975.933 333.933 977.467 331.744 L 979 329.555 979 315.712 L 979 301.869 978.021 300.039 L 977.042 298.210 973.872 297.105 L 970.702 296 955.851 296 L 941 296 941 334.084 M 997 296.785 C 997 297.216, 994.075 313.618, 990.500 333.233 C 986.925 352.848, 984 369.614, 984 370.492 L 984 372.088 991.250 371.794 L 998.500 371.500 998.780 369 C 998.934 367.625, 999.280 365.488, 999.549 364.250 L 1000.038 362 1005.050 362 L 1010.063 362 1010.453 363.250 C 1010.668 363.938, 1011.125 366.188, 1011.467 368.250 L 1012.091 372 1019.045 372 L 1026 372 1026.013 370.750 C 1026.039 368.152, 1013.846 300.399, 1012.965 298.250 L 1012.043 296 1004.521 296 L 997 296 997 296.785 M 1033 299 L 1031 301 1031 333.444 L 1031 365.888 1033.413 368.694 L 1035.827 371.500 1051.913 371.855 L 1068 372.210 1068 351.230 L 1068 330.250 1064.875 329.625 C 1063.156 329.281, 1060.006 329, 1057.875 329 L 1054 329 1054 344.057 L 1054 359.115 1049.750 358.807 L 1045.500 358.500 1045.500 334.500 L 1045.500 310.500 1053.886 310.207 L 1062.271 309.915 1061.710 304.483 C 1061.402 301.496, 1060.865 298.590, 1060.516 298.026 L 1059.882 297 1047.441 297 L 1035 297 1033 299 M 698.696 299.637 C 698.313 300.020, 698 301.110, 698 302.060 L 698 303.786 699.582 304.393 C 700.452 304.727, 705.342 305, 710.448 305 L 719.732 305 721.729 310.250 L 723.725 315.500 711.113 315.744 C 704.176 315.879, 697.541 316.211, 696.369 316.483 L 694.239 316.978 693.694 319.063 L 693.148 321.148 695.205 323.205 L 697.261 325.261 743.558 324.813 L 789.856 324.365 791.428 323.060 C 793.218 321.574, 793.385 320.159, 792.024 318 L 791.078 316.500 775.680 316 L 760.283 315.500 762.768 309.750 L 765.254 304 775.697 304 L 786.139 304 785.820 301.750 L 785.500 299.500 773.500 299.500 L 761.500 299.500 758.010 307.778 L 754.519 316.056 742.151 315.778 L 729.783 315.500 726.469 307.500 L 723.156 299.500 711.274 299.221 L 699.392 298.942 698.696 299.637 M 956 319.443 L 956 330 959.250 329.985 C 961.038 329.976, 963.080 329.601, 963.790 329.151 L 965.079 328.333 964.790 318.916 L 964.500 309.500 960.250 309.193 L 956 308.885 956 319.443 M 1004.717 327 C 1003.791 330.859, 1002 344.733, 1002 348.041 L 1002 351 1004.941 351 L 1007.882 351 1008.312 350.250 C 1008.549 349.837, 1007.972 343.875, 1007.029 337 L 1005.316 324.500 1004.717 327 M 701.803 330.531 L 701.272 331.062 705.922 354.031 L 710.572 377.001 712.323 378.750 L 714.073 380.500 743.010 380.500 L 771.946 380.500 773.900 378.500 L 775.854 376.500 778.948 360 C 780.650 350.925, 782.483 341.613, 783.021 339.307 C 783.560 337.001, 784 334.189, 784 333.057 L 784 331 770 331 L 756 331 756 336.964 L 756 342.928 765.738 343.214 L 775.477 343.500 775.812 345.250 L 776.147 347 766.073 347 L 756 347 756 352.462 L 756 357.925 765.239 358.212 L 774.477 358.500 774.812 360.250 L 775.147 362 765.573 362 L 756 362 756 369.573 L 756 377.147 754.250 376.813 L 752.500 376.479 752.206 369.239 L 751.912 362 742.956 362 L 734 362 734 369.573 L 734 377.147 732.250 376.813 L 730.500 376.479 730.207 369.278 L 729.914 362.077 721.288 361.788 L 712.661 361.500 712.247 360.250 L 711.833 359 720.917 359 L 730 359 730 353 L 730 347 719.500 347 L 709 347 709 345.500 L 709 344 719.500 344 L 730 344 730 337 L 730 330 716.167 330 C 708.558 330, 702.094 330.239, 701.803 330.531 M 734 337 L 734 344 737.750 343.991 C 739.813 343.987, 743.862 343.699, 746.750 343.352 L 752 342.721 752 337 L 752 331.279 746.750 330.648 C 743.862 330.301, 739.813 330.013, 737.750 330.009 L 734 330 734 337 M 956 350 L 956 359 960.500 359 L 965 359 965 350 L 965 341 960.500 341 L 956 341 956 350 M 734 353.078 L 734 359.233 736.250 358.630 C 737.487 358.299, 741.561 358.021, 745.302 358.014 L 752.105 358 751.802 352.750 L 751.500 347.500 742.750 347.211 L 734 346.922 734 353.078 M 844.250 382.662 L 843 383.167 843 391.083 L 843 399 847.277 399 L 851.555 399 853.783 397.439 L 856.012 395.878 855.677 390.301 L 855.342 384.723 853.480 383.362 L 851.618 382 848.559 382.079 C 846.876 382.122, 844.938 382.385, 844.250 382.662 M 871.331 384.750 L 871.543 387.500 872.688 387.500 C 873.318 387.500, 874.167 387.834, 874.575 388.241 L 875.316 388.983 876.569 387.943 L 877.822 386.903 878.500 388 L 879.178 389.097 880.589 387.926 C 881.365 387.282, 882 386.334, 882 385.819 L 882 384.882 881.069 385.457 L 880.138 386.033 879.592 385.148 L 879.045 384.264 881.184 384.382 L 883.323 384.500 883.772 383.168 L 884.221 381.837 881.861 382.168 L 879.500 382.500 878.160 384.298 L 876.820 386.095 875.568 385.056 L 874.316 384.017 873.605 384.728 L 872.894 385.439 873.554 383.720 L 874.214 382 872.667 382 L 871.120 382 871.331 384.750 M 920.639 382.775 C 920.094 383.657, 918.021 395.449, 918.008 397.750 L 918 399 919.892 399 L 921.783 399 922.478 396.250 L 923.172 393.500 924.599 396.214 L 926.026 398.927 927.475 398.371 L 928.924 397.815 929.623 395.658 L 930.322 393.500 931.411 396 L 932.500 398.500 934.250 398.794 L 936 399.088 936 397.486 C 936 396.606, 935.484 392.761, 934.853 388.943 L 933.707 382 932.883 382 C 932.430 382, 931.034 383.797, 929.780 385.992 C 928.526 388.188, 927.217 389.988, 926.871 389.992 C 926.526 389.997, 925.690 388.665, 925.014 387.033 C 924.338 385.401, 923.198 383.580, 922.481 382.985 L 921.178 381.903 920.639 382.775 M 953.365 383.169 L 951.229 384.203 950.032 386.439 L 948.836 388.675 949.168 391.588 L 949.500 394.500 950.654 394.282 L 951.808 394.064 953.154 395.782 L 954.500 397.500 952.750 396.128 L 951 394.755 951 395.756 L 951 396.757 954 398 L 957 399.243 960.038 397.984 L 963.076 396.726 964.038 394.929 C 964.567 393.940, 965 391.725, 965 390.007 L 965 386.882 964.011 387.493 L 963.023 388.104 963.579 386.656 L 964.134 385.208 961.845 383.604 L 959.555 382 957.527 382.068 C 956.412 382.105, 954.539 382.601, 953.365 383.169 M 978.627 384.123 C 977.732 385.400, 977 386.987, 977 387.650 L 977 388.855 979.635 390.927 C 981.084 392.067, 982.686 393, 983.194 393 L 984.118 393 983.543 392.069 L 982.967 391.138 983.775 390.639 L 984.582 390.140 984.546 392.820 L 984.510 395.500 981.505 395.669 L 978.500 395.837 980.427 395.093 L 982.354 394.350 980.692 393.712 L 979.031 393.074 977.975 395.047 L 976.920 397.019 979.671 398.065 L 982.422 399.111 984.802 398.514 L 987.182 397.916 986.602 396.406 L 986.023 394.896 987.088 395.554 L 988.153 396.213 987.827 393.364 L 987.500 390.515 984.750 389.203 C 981.660 387.729, 981.250 386.502, 983.552 385.618 L 985.104 385.023 984.558 385.907 L 984.011 386.790 985.544 387.378 L 987.076 387.966 987.671 386.416 L 988.266 384.866 987.352 383.952 C 986.849 383.449, 985.046 382.759, 983.345 382.419 L 980.253 381.801 978.627 384.123 M 1006.186 383.055 L 1003.872 383.983 1004.590 385.146 L 1005.309 386.309 1004.153 385.594 L 1002.996 384.880 1001.996 387.509 L 1000.997 390.139 1001.588 392.496 C 1001.914 393.792, 1002.956 395.556, 1003.906 396.415 L 1005.631 397.976 1008.566 398.550 L 1011.500 399.124 1013.500 397.629 L 1015.500 396.135 1014.259 394.876 L 1013.017 393.617 1009.759 393.559 L 1006.500 393.500 1006.500 390.500 L 1006.500 387.500 1009.852 387.444 L 1013.203 387.388 1014.154 385.689 L 1015.105 383.990 1012.487 382.995 C 1009.429 381.833, 1009.229 381.834, 1006.186 383.055 M 1029.923 384.923 L 1027 387.846 1027 390.288 L 1027 392.730 1029.073 395.366 L 1031.146 398.001 1033.823 397.420 L 1036.500 396.838 1035 398 L 1033.500 399.162 1036.500 398.518 L 1039.500 397.874 1041.450 395.959 L 1043.400 394.044 1043.400 390.393 L 1043.400 386.741 1040.644 384.370 L 1037.888 382 1035.367 382 L 1032.846 382 1029.923 384.923 M 1006.584 385.137 C 1007.043 385.878, 1004.514 388.181, 1003.908 387.575 C 1003.684 387.350, 1003.500 388.661, 1003.500 390.488 L 1003.500 393.809 1004.137 393.416 C 1004.487 393.199, 1005.329 393.692, 1006.009 394.511 C 1006.689 395.330, 1007.740 396, 1008.345 396 L 1009.445 396 1007.223 394.443 L 1005 392.887 1005 390.643 L 1005 388.400 1006.200 387.200 L 1007.400 386 1009.641 386 C 1010.874 386, 1012.091 385.663, 1012.345 385.250 L 1012.809 384.500 1009.500 384.500 L 1006.191 384.500 1006.584 385.137 M 951.530 385.951 L 950.882 387 951.691 387.118 C 952.136 387.184, 952.871 387.172, 953.325 387.093 L 954.151 386.950 953.553 388.834 L 952.955 390.718 953.584 392.359 L 954.214 394 957.048 394 L 959.882 394 960.340 393.250 C 960.593 392.837, 960.957 391.150, 961.149 389.500 L 961.500 386.500 958.200 386.831 L 954.899 387.161 953.539 386.032 L 952.178 384.903 951.530 385.951 M 1034.028 386.944 C 1032.668 387.989, 1031.248 388.653, 1030.871 388.420 L 1030.187 387.997 1030.715 390.017 L 1031.243 392.037 1033.871 393.854 C 1035.317 394.854, 1036.950 395.928, 1037.500 396.240 L 1038.500 396.808 1038.754 392.456 L 1039.009 388.104 1037.254 387.083 L 1035.500 386.061 1036.628 386.030 C 1038.093 385.991, 1039.679 387.980, 1040.192 390.500 L 1040.599 392.500 1041.155 389.780 L 1041.711 387.061 1040.969 387.519 L 1040.227 387.978 1038.991 386.489 C 1037.422 384.599, 1037.034 384.634, 1034.028 386.944 M 873.330 389.418 C 873.699 390.378, 874 392.927, 874 395.082 L 874 399 876.552 399 L 879.105 399 878.802 393.987 L 878.500 388.974 877.500 388.737 L 876.500 388.500 875.900 393 L 875.300 397.500 875.150 393.309 L 875 389.118 873.830 388.395 L 872.660 387.672 873.330 389.418" stroke="none" fill="#e3f3fa" fill-rule="evenodd"/></svg>