<svg xmlns="http://www.w3.org/2000/svg" width="435" height="158" viewBox="0 0 435 158" version="1.1"><path d="M 30.923 37.923 L 28 40.846 28 82.489 C 28 125.074, 28.145 126.825, 31.913 129.718 C 33.111 130.637, 45.797 130.944, 83.614 130.968 L 133.727 131 136.364 128.364 L 139 125.727 139 83.287 L 139 40.846 136.077 37.923 L 133.154 35 83.500 35 L 33.846 35 30.923 37.923 M 158.539 54.182 C 156.284 61.774, 156.369 62, 161.500 62 L 166 62 166 90 L 166 118 173 118 L 180 118 180 90 L 180 62 184.607 62 C 187.874 62, 189.079 61.636, 188.749 60.750 C 188.494 60.063, 187.686 57.138, 186.953 54.250 L 185.622 49 172.850 49 L 160.077 49 158.539 54.182 M 193 83.500 L 193 118 200 118 L 207 118 207 104 L 207 90 210.500 90 L 214 90 214 104 L 214 118 221 118 L 228 118 228 83.500 L 228 49 221 49 L 214 49 214 63.500 L 214 78 210.500 78 L 207 78 207 63.500 L 207 49 200 49 L 193 49 193 83.500 M 234 83.529 L 234 118.058 247.200 117.779 L 260.401 117.500 261.530 111.250 L 262.659 105 255.329 105 L 248 105 248 97.500 L 248 90 254 90 L 260 90 260 84 L 260 78 254 78 L 248 78 248 70 L 248 62 255.611 62 L 263.223 62 262.577 58.250 C 262.222 56.188, 261.686 53.263, 261.386 51.750 L 260.841 49 247.421 49 L 234 49 234 83.529 M 268 83.500 L 268 118 281.532 118 C 296.953 118, 301.349 116.837, 303.081 112.298 C 303.697 110.685, 304.012 104.491, 303.824 97.667 C 303.542 87.376, 303.250 85.652, 301.581 84.433 C 299.782 83.120, 299.766 82.916, 301.331 81.187 C 302.706 79.668, 303 77.100, 303 66.626 C 303 54.457, 302.894 53.803, 300.545 51.455 C 298.157 49.066, 297.686 49, 283.045 49 L 268 49 268 83.500 M 319 49.269 C 319 49.417, 316.300 64.371, 313 82.500 C 309.700 100.629, 307 116.053, 307 116.777 C 307 117.762, 308.688 118.017, 313.740 117.796 C 319.594 117.539, 320.519 117.237, 320.779 115.500 C 321.735 109.111, 321.831 109, 326.402 109 C 331.009 109, 331.952 110.140, 331.986 115.750 C 331.999 117.868, 332.411 118, 339 118 C 342.850 118, 345.999 117.662, 345.999 117.250 C 345.998 116.838, 343.298 101.530, 339.999 83.234 C 336.699 64.938, 334 49.750, 334 49.484 C 334 49.218, 330.625 49, 326.500 49 C 322.375 49, 319 49.121, 319 49.269 M 352.736 50.250 C 351.831 50.938, 350.620 52.767, 350.045 54.315 C 348.919 57.349, 348.767 106.272, 349.868 111.500 C 350.952 116.647, 355.290 117.997, 370.750 117.998 L 384 118 384 98 L 384 78 377.500 78 L 371 78 371 91.500 L 371 105 367 105 L 363 105 363 83.500 L 363 62 371.115 62 L 379.230 62 378.515 56.250 C 378.122 53.087, 377.594 50.163, 377.341 49.750 C 376.532 48.429, 354.546 48.876, 352.736 50.250 M 49.259 53.141 C 46.803 55.597, 49.861 57, 57.673 57 L 65.102 57 66.551 60.468 C 67.348 62.375, 68 64.175, 68 64.468 C 68 64.761, 63.532 65, 58.071 65 C 50.384 65, 47.789 65.354, 46.573 66.569 C 45.389 67.754, 45.257 68.612, 46.037 70.069 C 47.028 71.922, 48.524 72, 82.913 72 C 114.396 72, 118.915 71.807, 120.070 70.416 C 121.022 69.268, 121.095 68.374, 120.335 67.166 C 119.474 65.797, 117.226 65.450, 107.736 65.219 L 96.185 64.938 97.729 61.007 L 99.273 57.076 107.387 56.788 C 114.737 56.527, 115.500 56.312, 115.500 54.500 C 115.500 52.667, 114.738 52.476, 106.378 52.214 L 97.255 51.928 94.478 58.464 L 91.700 65 82.397 65 L 73.094 65 71.058 60.250 C 67.616 52.220, 68.081 52.527, 58.880 52.215 C 53.280 52.024, 50.066 52.334, 49.259 53.141 M 282 70.060 L 282 79.121 285.750 78.810 L 289.500 78.500 289.789 69.750 L 290.078 61 286.039 61 L 282 61 282 70.060 M 51.999 77.750 C 51.998 81.125, 58.315 111.513, 59.275 112.750 C 60.766 114.671, 105.313 114.533, 106.915 112.603 C 107.553 111.834, 109.410 104.297, 111.043 95.853 C 112.676 87.409, 114.243 79.487, 114.525 78.250 C 115.033 76.022, 114.932 76, 104.019 76 L 93 76 93 81 L 93 86 100.583 86 C 106.204 86, 108.060 86.324, 107.753 87.250 C 107.487 88.056, 104.795 88.604, 100.170 88.794 L 93 89.088 93 93.544 L 93 98 100 98 C 104 98, 107 98.429, 107 99 C 107 99.571, 104.017 100, 100.050 100 L 93.100 100 92.800 105.750 C 92.635 108.912, 92.050 111.500, 91.500 111.500 C 90.950 111.500, 90.365 108.912, 90.200 105.750 L 89.900 100 83 100 L 76.100 100 75.800 105.750 C 75.635 108.912, 75.050 111.500, 74.500 111.500 C 73.950 111.500, 73.365 108.912, 73.200 105.750 L 72.900 100 66.509 100 C 62.994 100, 59.840 99.550, 59.500 99 C 59.110 98.369, 61.490 98, 65.941 98 L 73 98 73 93.500 L 73 89 65 89 C 58.556 89, 57 88.708, 57 87.500 C 57 86.292, 58.556 86, 65 86 L 73 86 73 81 L 73 76 62.500 76 C 53.167 76, 52 76.194, 51.999 77.750 M 76 81 L 76 86 83 86 L 90 86 90 81 L 90 76 83 76 L 76 76 76 81 M 326.116 76.678 C 325.743 80.462, 323.878 93.849, 323.458 95.750 C 323.021 97.733, 323.358 98, 326.296 98 L 329.630 98 328.316 88.250 C 326.937 78.016, 326.309 74.714, 326.116 76.678 M 76 93 L 76 97 83 97 L 90 97 90 93 L 90 89 83 89 L 76 89 76 93 M 282 98 L 282 106 286 106 L 290 106 290 98 L 290 90 286 90 L 282 90 282 98" stroke="none" fill="#161616" fill-rule="evenodd"/></svg>