<svg xmlns="http://www.w3.org/2000/svg" width="249" height="63" viewBox="0 0 249 63" version="1.1"><path d="M 26.571 7.571 C 25.231 8.912, 25 12.640, 25 32.949 C 25 53.914, 25.198 56.919, 26.660 58.128 C 28.003 59.237, 33.598 59.432, 55.910 59.142 C 72.525 58.927, 83.997 58.381, 84.750 57.770 C 85.688 57.008, 86 50.679, 86 32.413 C 86 9.370, 85.897 8.015, 84.066 7.035 C 82.869 6.395, 71.833 6, 55.137 6 C 31.930 6, 27.922 6.220, 26.571 7.571 M 97.630 16.250 C 96.624 20.007, 96.910 21, 99 21 C 100.914 21, 101 21.667, 101 36.500 L 101 52 105 52 L 109 52 109 36.500 L 109 21 111.500 21 C 114.073 21, 114.412 20.139, 113.370 16.250 C 112.815 14.178, 112.191 14, 105.500 14 C 98.809 14, 98.185 14.178, 97.630 16.250 M 117 33 L 117 52 120.500 52 L 124 52 124 44.500 C 124 37.167, 124.056 37, 126.500 37 C 128.944 37, 129 37.167, 129 44.500 L 129 52 132.500 52 L 136 52 136 33 L 136 14 132.500 14 L 129 14 129 22 C 129 29.867, 128.958 30, 126.500 30 C 124.042 30, 124 29.867, 124 22 L 124 14 120.500 14 L 117 14 117 33 M 140 33 L 140 52 146.893 52 C 154.091 52, 155 51.430, 155 46.918 C 155 45.342, 154.276 45, 150.943 45 L 146.885 45 147.193 40.750 C 147.481 36.761, 147.699 36.481, 150.750 36.187 C 153.608 35.911, 154 35.519, 154 32.937 C 154 30.247, 153.705 30, 150.500 30 C 147.019 30, 147 29.976, 147 25.500 L 147 21 151 21 C 154.905 21, 155 20.917, 155 17.500 L 155 14 147.500 14 L 140 14 140 33 M 158 33 L 158 52 166.429 52 C 177.268 52, 178 51.344, 178 41.629 C 178 37.653, 177.511 33.911, 176.913 33.313 C 176.130 32.530, 176.130 32.038, 176.913 31.554 C 178.298 30.698, 178.339 18.502, 176.965 15.934 C 176.060 14.243, 174.805 14, 166.965 14 L 158 14 158 33 M 186.530 16.250 C 186.251 17.488, 184.859 25.025, 183.438 33 C 182.017 40.975, 180.606 48.543, 180.302 49.818 C 179.788 51.974, 180.019 52.114, 183.625 51.818 C 186.764 51.560, 187.561 51.073, 187.820 49.250 C 188.068 47.501, 188.792 47, 191.070 47 C 193.529 47, 194 47.402, 194 49.500 C 194 51.738, 194.408 52, 197.884 52 L 201.768 52 200.509 45.250 C 199.816 41.538, 198.246 32.987, 197.019 26.250 L 194.788 14 190.913 14 C 187.712 14, 186.950 14.391, 186.530 16.250 M 205.200 15.200 C 204.365 16.035, 204 21.340, 204 32.629 C 204 52.412, 203.764 52, 215.071 52 L 223 52 223 41 L 223 30 219.500 30 L 216 30 216 37.500 C 216 44.858, 215.952 45, 213.469 45 L 210.938 45 211.219 32.750 L 211.500 20.500 215.833 20.188 C 219.229 19.944, 220.040 19.548, 219.583 18.357 C 219.263 17.521, 219 16.198, 219 15.418 C 219 13.596, 206.993 13.407, 205.200 15.200 M 37 17 C 37 17.550, 38.977 18, 41.393 18 C 45.581 18, 47 19.033, 47 22.082 C 47 22.587, 44.300 23, 41 23 C 36.516 23, 35 23.355, 35 24.404 C 35 26.127, 50.099 27.305, 65.988 26.820 C 75.032 26.544, 76.523 26.259, 76.812 24.750 C 77.105 23.217, 76.271 23, 70.073 23 C 66.183 23, 63 22.745, 63 22.434 C 63 22.123, 63.466 20.998, 64.035 19.934 C 64.821 18.465, 66.144 18, 69.535 18 C 71.991 18, 74 17.550, 74 17 C 74 16.450, 71.531 16, 68.513 16 C 63.188 16, 62.984 16.103, 61.564 19.500 C 60.177 22.820, 59.852 23, 55.236 23 C 50.660 23, 50.271 22.792, 48.701 19.500 C 47.122 16.187, 46.764 16, 42.016 16 C 39.257 16, 37 16.450, 37 17 M 166 25.500 C 166 30.776, 166.145 31.119, 168.250 30.820 C 170.241 30.537, 170.500 29.924, 170.500 25.500 C 170.500 21.076, 170.241 20.463, 168.250 20.180 C 166.145 19.881, 166 20.224, 166 25.500 M 38.484 31.250 C 38.771 32.487, 39.696 36.869, 40.539 40.986 C 41.382 45.103, 42.430 48.830, 42.867 49.267 C 43.304 49.704, 49.457 49.936, 56.540 49.781 L 69.418 49.500 71.163 41 C 73.760 28.354, 73.984 29, 67 29 C 61.026 29, 61 29.013, 61 31.943 C 61 34.678, 61.300 34.912, 65.250 35.268 L 69.500 35.651 65.250 35.825 C 61.458 35.981, 61 36.263, 61 38.443 C 61 40.589, 61.514 40.931, 65.250 41.268 L 69.500 41.651 65.310 41.825 C 61.243 41.995, 61.109 42.110, 60.728 45.750 L 60.336 49.500 60.168 45.750 C 60.003 42.070, 59.926 42, 56 42 C 52.222 42, 52 42.167, 52 45 C 52 46.650, 51.550 48, 51 48 C 50.450 48, 50 46.677, 50 45.060 C 50 42.400, 49.644 42.083, 46.250 41.728 L 42.500 41.336 46.250 41.168 C 49.539 41.021, 50 40.692, 50 38.500 C 50 36.199, 49.637 36, 45.441 36 C 42.650 36, 41.122 35.611, 41.501 34.998 C 41.858 34.421, 43.793 34.263, 46.060 34.626 C 49.941 35.246, 50 35.209, 50 32.128 L 50 29 43.981 29 C 38.251 29, 37.987 29.108, 38.484 31.250 M 52 31.500 C 52 33.750, 52.400 34, 56 34 C 59.600 34, 60 33.750, 60 31.500 C 60 29.250, 59.600 29, 56 29 C 52.400 29, 52 29.250, 52 31.500 M 190.030 31.625 C 190.014 33.344, 189.719 36.156, 189.375 37.875 C 188.841 40.543, 189.043 41, 190.752 41 C 192.545 41, 192.701 40.503, 192.249 36.250 C 191.617 30.316, 190.074 27.100, 190.030 31.625 M 52 38.560 C 52 40.908, 52.312 41.095, 55.750 40.810 C 58.762 40.561, 59.563 40.057, 59.820 38.250 C 60.106 36.233, 59.718 36, 56.070 36 C 52.370 36, 52 36.233, 52 38.560 M 166 40.430 C 166 44.665, 166.187 45, 168.557 45 C 170.948 45, 171.095 44.722, 170.807 40.750 C 170.552 37.217, 170.120 36.446, 168.250 36.180 C 166.198 35.889, 166 36.264, 166 40.430" stroke="none" fill="#3c9132" fill-rule="evenodd"/></svg>